<svg width="100" height="100" viewBox="0 0 100 100" fill="none" xmlns="http://www.w3.org/2000/svg">
<path d="M50 100C77.6142 100 100 77.6142 100 50C100 22.3858 77.6142 0 50 0C22.3858 0 0 22.3858 0 50C0 77.6142 22.3858 100 50 100Z" fill="#F9B906"/>
<path d="M100 49.5926C100 77.4291 77.4204 99.9999 49.5637 99.9999C34.8432 99.9999 21.5981 93.6995 12.381 83.6457C21.3508 91.8438 35.342 97.2309 48.4572 97.2309C76.3139 97.2309 97.4809 75.7953 97.4809 47.9546C97.4809 34.8302 91.8224 21.3497 83.5903 12.3809C93.6751 21.6011 100 34.8595 100 49.5926Z" fill="#E8A615"/>
<path d="M50.0001 95.2382C25.0516 95.2382 4.76196 74.9453 4.76196 50.0021C4.76196 25.059 25.0558 4.76196 50.0001 4.76196C74.9444 4.76196 95.2382 25.0548 95.2382 49.998C95.2382 74.9412 74.9444 95.234 50.0001 95.234V95.2382Z" fill="#E8A615"/>
<path d="M93.3333 49.5218C93.3333 73.1521 73.8949 92.381 50.0021 92.381C43.2237 92.381 36.8073 90.8362 31.0899 88.0797C25.1241 85.2066 19.9245 81.0219 15.8701 75.9044C14.0218 73.5685 12.4093 71.0368 11.0747 68.3469C8.25387 62.6631 6.66663 56.2715 6.66663 49.5218C6.66663 44.5168 7.53813 39.7116 9.14222 35.2396C13.9629 21.7776 25.4062 11.3928 39.5776 7.92009C42.9163 7.0998 46.4108 6.66675 49.9979 6.66675C57.9888 6.66675 65.4829 8.81533 71.9161 12.5629C74.7832 14.2368 77.4441 16.2229 79.8439 18.4798C84.3698 22.7395 87.9653 27.9485 90.302 33.7864C92.2555 38.6581 93.3291 43.9671 93.3291 49.5218H93.3333Z" fill="#F9B906"/>
<path d="M71.4285 12.5839L11.0415 68.5715C8.2419 62.8674 6.66663 56.453 6.66663 49.6791C6.66663 44.6562 7.53157 39.8339 9.12356 35.3459L39.3296 7.92457C42.6431 7.10134 46.1113 6.66675 49.6713 6.66675C57.602 6.66675 65.0397 8.82301 71.4243 12.5839H71.4285Z" fill="#FFC943"/>
<path d="M89.5238 33.5978L31.1848 88.5714C25.3073 85.6623 20.1848 81.4251 16.1904 76.2435L79.2206 18.0952C83.6795 22.4083 87.2217 27.6826 89.5238 33.5936V33.5978Z" fill="#FFC943"/>
<path d="M33.4065 71V63.448L45.9505 53.016C46.8465 52.248 47.8705 51.3947 49.0225 50.456C50.2172 49.4747 51.3478 48.4293 52.4145 47.32C53.5238 46.2107 54.4198 45.0373 55.1025 43.8C55.8278 42.5627 56.1905 41.2827 56.1905 39.96C56.1905 38.1253 55.6145 36.632 54.4625 35.48C53.3532 34.328 51.7105 33.752 49.5345 33.752C47.4865 33.752 45.8652 34.2213 44.6705 35.16C43.5185 36.056 42.7932 37.208 42.4945 38.616H33.6625C33.9185 35.5867 34.8145 33.0907 36.3505 31.128C37.9292 29.1227 39.9132 27.6293 42.3025 26.648C44.6918 25.6667 47.2092 25.176 49.8545 25.176C52.7132 25.176 55.3158 25.7093 57.6625 26.776C60.0092 27.8427 61.8652 29.4 63.2305 31.448C64.5958 33.4533 65.2785 35.9493 65.2785 38.936C65.2785 41.496 64.7878 43.8213 63.8065 45.912C62.8678 47.96 61.5665 49.88 59.9025 51.672C58.2385 53.4213 56.3612 55.1067 54.2705 56.728L47.1025 62.552H65.2145V71H33.4065Z" fill="white"/>
</svg>
